<svg width="55" height="55" viewBox="0 0 55 55" fill="none" xmlns="http://www.w3.org/2000/svg">
<path d="M27.5 1.5C41.8582 1.5 53.5 13.1459 53.5 27.5C53.5 41.8626 41.8585 53.5 27.5 53.5C13.1415 53.5 1.5 41.8626 1.5 27.5C1.5 13.1459 13.1418 1.5 27.5 1.5ZM27.5 10.6973C24.0996 10.6973 21.343 13.4541 21.3428 16.8545C21.3428 19.3385 22.8143 21.4778 24.9326 22.4512H22.6211C21.0578 22.4512 19.7901 23.719 19.79 25.2822V27.9434C19.79 29.4496 20.967 30.6777 22.4512 30.7656V34.8789C20.9672 34.9668 19.7903 36.1952 19.79 37.7012V40.3633C19.7902 41.9264 21.0579 43.1934 22.6211 43.1934H32.3789C33.9421 43.1934 35.2098 41.9264 35.21 40.3633V37.7012C35.2097 36.1952 34.0328 34.9668 32.5488 34.8789V25.2822C32.5488 23.8236 31.4449 22.623 30.0273 22.4688C32.167 21.504 33.6572 19.354 33.6572 16.8545C33.657 13.4541 30.9004 10.6973 27.5 10.6973Z" fill="#FFF9F0" stroke="#AC8C70" stroke-width="3"/>
</svg>
