<svg width="55" height="50" viewBox="0 0 55 50" fill="none" xmlns="http://www.w3.org/2000/svg">
<path d="M53.5 43.75C53.5 46.655 51.6049 48.5 49.8438 48.5H5.15625C3.39506 48.5 1.5 46.655 1.5 43.75V18.9971C3.90894 21.2148 7.69384 24.5936 16.6016 32.4375V32.4385C17.6149 33.335 19.2931 35.0293 21.0615 36.3711C22.8294 37.7124 25.0684 39.0188 27.4844 39.0117V39.0127C27.4898 39.0128 27.4956 39.0117 27.501 39.0117C27.5039 39.0117 27.5068 39.0127 27.5098 39.0127L27.5088 39.0117C29.9427 39.0276 32.2106 37.6964 33.9863 36.3457C35.7622 34.9949 37.4435 33.292 38.4082 32.4395L38.4072 32.4385C47.3169 24.5928 51.0944 21.2056 53.5 18.9854V43.75ZM5.15625 1.5H49.8438C51.6049 1.5 53.5 3.34501 53.5 6.25V8.72363C53.5 9.33233 53.2653 9.82742 52.9844 10.0918L52.9785 10.0977C49.7116 13.2034 48.6429 14.2831 34.3945 26.8164H34.3936C33.3554 27.7303 32.1839 28.9366 30.7588 30.085C30.0782 30.6334 29.4234 31.0952 28.8271 31.4111C28.2108 31.7377 27.7858 31.8393 27.5312 31.834L27.5 31.833L27.4688 31.834C27.2142 31.8393 26.7892 31.7377 26.1729 31.4111C25.5766 31.0952 24.9218 30.6334 24.2412 30.085C22.8161 28.9366 21.6446 27.7303 20.6064 26.8164H20.6055C6.36187 14.2873 5.28912 13.1912 2.02148 10.0977C1.7256 9.80944 1.5 9.31839 1.5 8.72363V6.25C1.5 3.43559 3.27876 1.61659 4.99121 1.50586L5.15625 1.5Z" fill="#FFF9F0" stroke="#AC8C70" stroke-width="3"/>
</svg>
