<svg width="55" height="55" viewBox="0 0 55 55" fill="none" xmlns="http://www.w3.org/2000/svg">
<path d="M19.125 32.9287V37.3213C19.125 39.0406 20.3838 40.7861 22.3438 40.7861H32.6562C34.6162 40.7861 35.875 39.0406 35.875 37.3213V32.9287H53.5V49.1074C53.4999 51.6161 51.5834 53.5 49.8438 53.5H5.15625C3.41662 53.5 1.50014 51.6161 1.5 49.1074V32.9287H19.125ZM18.9062 1.5H36.0938C37.8334 1.5 39.7499 3.38388 39.75 5.89258V13.2861H49.8438C51.5834 13.2861 53.5 15.1699 53.5 17.6787V26H1.5V17.6787C1.5 15.1699 3.41656 13.2861 5.15625 13.2861H15.25V5.89258C15.2501 3.38388 17.1666 1.5 18.9062 1.5ZM19.125 13.2861H35.875V6.35742H19.125V13.2861Z" fill="#FFF9F0" stroke="#AC8C70" stroke-width="3"/>
</svg>
