<svg width="1300" height="1300" viewBox="0 0 1300 1300" fill="none" xmlns="http://www.w3.org/2000/svg">
<path d="M650 1300C290.71 1300 0 1008.86 0 650C0 290.71 291.141 0 650 0C1009.29 0 1300 291.141 1300 650C1300.43 1009.29 1009.29 1300 650 1300Z" fill="#CEBBAB"/>
<mask id="mask0_26_635" style="mask-type:alpha" maskUnits="userSpaceOnUse" x="0" y="0" width="1301" height="1300">
<path d="M650 1300C290.71 1300 0 1008.86 0 650C0 290.71 291.141 0 650 0C1009.29 0 1300 291.141 1300 650C1300.43 1009.29 1009.29 1300 650 1300Z" fill="#F7C0B5"/>
</mask>
<g mask="url(#mask0_26_635)">
<path d="M1014 1197.33C1010.97 1199.5 1007.5 1201.66 1004.47 1203.83C1001 1206 997.967 1208.16 994.5 1209.9C991.467 1211.63 988.867 1213.36 985.833 1215.1C985.4 1215.53 984.967 1215.53 984.534 1215.96C974.567 1222.03 964.167 1227.66 953.767 1232.86C950.733 1234.6 947.267 1236.33 944.233 1237.63C944.233 1237.63 943.8 1238.06 943.367 1238.06C939.9 1239.8 936.433 1241.53 932.967 1243.26C926.033 1246.73 918.667 1249.76 911.733 1252.8C908.267 1254.53 904.367 1255.83 900.9 1257.13C897.433 1258.43 893.533 1260.16 890.067 1261.46C886.6 1262.76 882.7 1264.5 879.233 1265.8C879.233 1265.8 879.233 1265.8 878.8 1265.8C875.333 1267.1 871.433 1268.4 867.967 1269.7C860.167 1272.3 851.933 1274.9 844.133 1277.5C841.533 1278.36 838.5 1279.23 835.9 1280.1C827.667 1282.7 819.433 1284.86 811.2 1286.6C808.167 1287.46 805.133 1287.9 801.667 1288.76C793.867 1290.5 785.633 1292.23 777.833 1293.96C776.1 1294.4 774.8 1294.4 773.067 1294.83C770.467 1295.26 767.433 1295.7 764.833 1296.13C760.933 1296.56 757.467 1297.43 753.567 1297.86C751.833 1298.3 750.1 1298.3 748.367 1298.73C746.2 1299.16 743.6 1299.6 741 1299.6C734.067 1300.46 726.7 1301.33 719.767 1302.2C717.6 1302.63 715 1302.63 712.833 1303.06H712.4C709.367 1303.5 706.333 1303.5 703.3 1303.93C700.267 1304.36 697.233 1304.36 694.2 1304.36C692.467 1304.36 690.3 1304.8 688.567 1304.8C685.1 1304.8 682.067 1305.23 679.033 1305.23C674.7 1305.23 670.8 1305.66 666.467 1305.66C662.133 1305.66 658.233 1305.66 653.9 1305.66C650.867 1305.66 647.833 1305.66 644.8 1305.66C462.367 1303.06 297.7 1225.5 180.7 1102.43C180.7 1102.43 180.7 1102 180.267 1102C193.7 1075.56 243.534 1027.9 295.534 988.465C361.4 938.632 454.567 907.865 454.567 907.865C454.567 907.865 515.667 897.898 742.3 945.132C915.2 981.532 988.867 1129.3 1014 1197.33Z" fill="#F7D3B5"/>
<path d="M790.4 1065.16C781.3 1109.8 722.367 1136.23 623.134 1096.36C501.367 1046.96 454.567 907.865 454.567 907.865C448.067 808.198 432.9 722.832 432.9 722.832C573.734 710.698 740.134 875.365 740.134 875.365L759.2 956.832C760.934 963.765 764.4 969.832 769.6 974.165C778.7 989.765 796.467 1036.56 790.4 1065.16Z" fill="#F7D3B5"/>
<path d="M769.6 974.599C686.833 970.265 625.733 958.132 560.3 840.699C615.767 889.665 681.2 908.299 750.1 916.965L759.2 956.832C760.933 964.199 764.4 970.265 769.6 974.599Z" fill="#EFBDA5"/>
<path d="M940.767 452.432C948.567 488.832 952.467 518.298 931.233 615.365C910 712.432 950.733 809.498 848.467 898.332C779.567 958.132 659.1 969.398 562.9 903.965C530.4 881.865 500.5 851.098 476.233 810.798C457.167 779.165 435.067 749.265 410.367 721.965C376.133 684.698 334.967 609.732 355.333 477.132C388.267 261.332 601.9 236.632 728 260.465C854.1 284.298 919.533 356.232 940.767 452.432Z" fill="#F7D3B5"/>
<path d="M526.067 621.865C526.067 621.865 512.633 556.865 449.367 564.665C394.767 571.598 375.7 702.465 499.633 738.865" fill="#F7D3B5"/>
<path d="M495.734 679.498C495.734 679.498 480.134 669.532 481.867 652.198C484.467 631.832 481.867 619.265 472.334 615.365C448.501 605.398 443.734 633.132 444.601 636.598" stroke="#423232" stroke-width="13" stroke-miterlimit="10" stroke-linecap="round" stroke-linejoin="round"/>
<path d="M826.367 721.532C826.367 721.532 842.833 722.398 858.433 703.765C867.1 693.365 874.467 680.365 869.7 676.465C864.933 672.132 786.5 684.265 781.3 694.665C776.1 705.065 806.433 721.532 826.367 721.532Z" fill="#EFBDA5"/>
<path d="M839.367 575.932C839.367 575.932 840.234 617.098 866.667 663.032C878.367 683.398 860.601 716.765 822.034 722.398" stroke="#423232" stroke-width="13" stroke-miterlimit="10" stroke-linecap="round" stroke-linejoin="round"/>
<path opacity="0.42" d="M604.501 743.632C629.151 743.632 649.134 727.141 649.134 706.799C649.134 686.456 629.151 669.965 604.501 669.965C579.85 669.965 559.867 686.456 559.867 706.799C559.867 727.141 579.85 743.632 604.501 743.632Z" fill="#ED938A"/>
<path opacity="0.42" d="M924.3 670.832C923 695.098 923.434 718.932 921.7 742.765C902.634 738.432 888.767 724.132 888.767 707.232C888.767 689.032 903.933 674.298 924.3 670.832Z" fill="#ED938A"/>
<path d="M907.837 1029.6C907.837 1029.6 840.67 966.767 774.37 951.6C774.37 951.6 782.17 1063.4 703.303 1055.17C575.903 1041.73 455.87 906.534 455.87 906.534C455.87 906.534 372.237 929.934 304.637 981.5C304.637 981.5 313.737 1114.53 465.837 1180.4C617.937 1246.27 829.837 1213.77 880.103 1171.3C930.37 1128.83 920.403 1043.47 907.837 1029.6Z" fill="white"/>
<path d="M267.37 1010.1C267.37 1010.1 183.303 1056.47 137.37 1188.63C91.4366 1320.8 92.7366 1517.53 92.7366 1517.53H1081.6C1081.6 1517.53 1053.87 1192.97 955.937 1084.63C955.937 1084.63 962.437 1181.7 770.47 1191.67C578.503 1201.63 347.537 1140.53 341.903 1105C336.703 1068.6 267.37 1010.1 267.37 1010.1Z" fill="white"/>
<path d="M996.236 1525.33C724.103 1651 276.036 1537.47 276.036 1537.47C276.036 1537.47 266.936 1426.97 299.87 1228.07C301.17 1218.97 302.47 1209.87 303.336 1201.63C312.87 1111.5 290.77 1049.53 267.37 1010.53C267.37 1000.57 277.77 993.634 289.47 983.667C294.236 979.767 379.603 926.9 383.07 929.5C389.136 938.167 394.77 946.834 399.536 955.934C448.07 1045.63 464.97 1141.83 565.936 1155.7C665.603 1169.57 761.803 1167.4 830.703 1152.23C897.003 1137.5 852.803 1027.43 823.336 973.267C822.036 971.1 822.036 970.234 820.736 969.367C830.703 962.867 946.403 1051.7 955.503 1084.63C974.57 1132.3 979.77 1167.83 985.403 1214.2C1004.04 1366.3 996.236 1525.33 996.236 1525.33Z" fill="#AD827B"/>
<path d="M401.269 1152.67C416.586 1152.67 429.003 1140.25 429.003 1124.93C429.003 1109.62 416.586 1097.2 401.269 1097.2C385.953 1097.2 373.536 1109.62 373.536 1124.93C373.536 1140.25 385.953 1152.67 401.269 1152.67Z" fill="#946E68"/>
<path d="M918.237 1164.37C932.118 1164.37 943.37 1153.11 943.37 1139.23C943.37 1125.35 932.118 1114.1 918.237 1114.1C904.356 1114.1 893.104 1125.35 893.104 1139.23C893.104 1153.11 904.356 1164.37 918.237 1164.37Z" fill="#946E68"/>
<path d="M594.97 1203.8C660.836 1207.7 743.17 1209 812.07 1199.03C858.436 1192.53 900.47 1226.77 903.936 1273.13C906.97 1319.07 908.27 1374.97 900.903 1423.93C885.736 1529.67 507.436 1524.47 501.37 1431.3C497.903 1383.2 494.87 1344.2 491.403 1312.13C484.903 1251.9 534.303 1200.33 594.97 1203.8Z" stroke="#946E68" stroke-width="13" stroke-miterlimit="10"/>
<path d="M721.07 1054.73C721.07 1054.73 641.77 1150.93 617.504 1143.57C593.237 1136.2 442.437 1056.03 418.604 919.1C418.604 919.1 437.237 888.767 453.704 879.234C453.704 879.234 499.204 959.4 581.537 1007.5C659.97 1053 721.07 1054.73 721.07 1054.73Z" fill="white"/>
<path d="M721.07 1054.73C721.07 1054.73 641.77 1150.93 617.504 1143.57C593.237 1136.2 442.437 1056.03 418.604 919.1" stroke="#D0D6DD" stroke-width="13" stroke-miterlimit="10" stroke-linecap="round" stroke-linejoin="round"/>
<path d="M721.069 1054.73C721.069 1054.73 782.603 1126.67 802.969 1127.53C823.336 1128.4 832.003 1001.87 770.903 937.734C770.903 937.734 761.369 940.334 757.469 941.2C757.036 940.767 787.803 1033.07 721.069 1054.73Z" fill="white"/>
<path d="M721.069 1054.73C721.069 1054.73 782.603 1126.67 802.969 1127.53C823.336 1128.4 832.003 1001.87 770.903 937.734" stroke="#D0D6DD" stroke-width="13" stroke-miterlimit="10" stroke-linecap="round" stroke-linejoin="round"/>
<path d="M715.003 1061.67C715.003 1061.67 702.869 1075.1 707.203 1104.57C711.536 1133.6 710.669 1162.63 710.669 1162.63" stroke="#D0D6DD" stroke-width="13" stroke-miterlimit="10" stroke-linecap="round" stroke-linejoin="round"/>
<path d="M737.103 1126.67C742.608 1126.67 747.07 1122.2 747.07 1116.7C747.07 1111.2 742.608 1106.73 737.103 1106.73C731.599 1106.73 727.137 1111.2 727.137 1116.7C727.137 1122.2 731.599 1126.67 737.103 1126.67Z" fill="#D0D6DD"/>
<path d="M683.943 619.439C673.543 619.006 665.743 610.339 666.61 599.939L667.043 587.806C667.476 577.406 676.143 569.606 686.543 570.473C696.943 570.906 704.743 579.573 703.876 589.973L703.443 602.106C703.01 612.073 694.343 619.873 683.943 619.439Z" fill="#423232"/>
<path d="M866.375 625.939C856.842 625.506 849.475 617.272 849.909 607.739L850.342 596.472C850.775 586.939 859.009 579.572 868.542 580.006C878.075 580.439 885.442 588.672 885.009 598.206L884.575 609.472C884.142 619.006 875.909 626.372 866.375 625.939Z" fill="#423232"/>
<path d="M725.977 594.306C725.977 594.306 714.71 578.273 695.21 575.239C679.177 572.639 661.41 580.439 658.81 589.539" stroke="#423232" stroke-width="13" stroke-miterlimit="10" stroke-linecap="round" stroke-linejoin="round"/>
<path d="M853.809 598.206C853.809 598.206 853.809 584.339 873.743 584.339C890.209 584.339 897.143 599.506 897.143 599.506" stroke="#423232" stroke-width="13" stroke-miterlimit="10" stroke-linecap="round" stroke-linejoin="round"/>
<path d="M743.743 524.539C752.843 527.573 761.942 519.339 760.209 509.373C759.342 504.173 757.176 498.973 752.843 495.073C739.843 483.373 686.109 472.973 653.609 488.139C625.009 502.006 702.143 510.673 743.743 524.539Z" fill="#423232"/>
<path d="M873.308 531.473C865.941 534.073 858.141 526.273 859.441 517.173C859.874 512.406 861.608 507.639 865.074 504.173C875.474 493.773 911.008 485.539 933.541 501.573C953.041 515.006 907.108 518.906 873.308 531.473Z" fill="#423232"/>
<path d="M809.297 750.856C809.297 750.856 820.564 744.789 826.631 755.189C832.697 765.589 817.964 777.289 817.964 777.289C817.964 777.289 834.431 789.423 823.164 804.589C814.064 816.723 800.198 815.856 800.198 815.856" stroke="#423232" stroke-width="13" stroke-miterlimit="10" stroke-linecap="round" stroke-linejoin="round"/>
<path d="M1017.62 792.109C982.96 721.417 1019.44 707.658 998.464 653.571C967.456 573.864 969.736 562.478 973.384 544.449C1000.74 410.181 1018.53 265.001 858.928 179.127C679.264 82.34 428.008 121.719 334.528 241.279C255.184 341.861 278.44 394.524 258.376 465.691C238.768 534.486 150.304 536.383 190.888 678.717C211.408 750.832 128.872 788.788 147.112 910.246C274.336 969.551 407.032 997.543 542.464 1006.08C579.4 911.669 465.4 890.319 464.032 749.409C464.032 739.92 464.488 730.906 465.4 722.366C339.088 681.089 359.608 540.653 416.608 533.062C456.28 527.843 477.256 551.091 487.744 570.543C488.656 573.39 490.024 575.762 491.392 578.609C508.72 609.448 600.376 581.456 661.936 506.968C728.056 427.261 723.04 433.429 756.328 385.51C823.36 289.672 821.536 388.357 838.408 401.641C862.12 420.144 847.072 433.903 884.008 497.479C900.424 525.946 930.52 553.938 923.224 587.623C900.88 693.424 943.744 800.174 836.128 897.436C811.96 919.26 778.216 938.238 738.544 946.303C740.368 960.537 745.84 981.412 758.152 1003.71C851.632 997.069 945.568 983.31 1039.5 966.704C1054.1 914.041 1046.8 851.414 1017.62 792.109Z" fill="#433939"/>
<path d="M491.849 578.134C490.481 575.762 489.113 572.916 488.201 570.069C489.569 572.916 490.937 575.762 491.849 578.134Z" fill="#FEE4BF"/>
<path d="M936.905 585.725C936.905 585.725 1057.29 544.923 1011.69 424.414C986.609 357.992 985.241 282.555 959.249 234.162C923.225 167.265 865.769 147.339 780.953 165.842C635.033 197.63 871.697 161.098 886.289 270.694C900.425 380.291 936.905 585.725 936.905 585.725Z" fill="#4B4141"/>
<path opacity="0.6" d="M865.083 677.253C865.083 677.253 870.283 706.72 904.516 721.453C913.183 724.92 922.283 719.287 922.283 709.753C921.849 709.753 867.249 680.72 865.083 677.253Z" fill="#B7AEA9"/>
<path opacity="0.6" d="M782.75 606.187C782.75 606.187 810.483 578.453 824.35 575.42L787.516 584.087L782.75 606.187Z" fill="#B7AEA9"/>
<path opacity="0.6" d="M597.716 677.254C597.716 677.254 613.75 713.654 661.85 722.32C709.95 731.42 753.716 696.754 774.083 638.687C774.083 638.687 757.616 692.42 691.75 702.387C626.316 713.22 597.716 677.254 597.716 677.254Z" fill="#B7AEA9"/>
<path opacity="0.29" d="M675.283 482.687C614.183 482.687 564.349 533.82 563.916 596.22C563.916 625.687 574.749 652.554 592.516 672.054L749.816 513.02C730.316 493.954 704.316 482.687 675.283 482.687Z" fill="#DA8869"/>
<path opacity="0.23" d="M749.817 513.02L592.517 672.054C612.45 694.154 640.617 707.587 671.817 707.587C732.05 707.587 781.45 657.754 783.183 595.787C784.05 563.287 771.05 533.82 749.817 513.02Z" fill="#DA8869"/>
<path opacity="0.29" d="M928.783 482.687C882.416 482.687 843.416 533.82 841.683 596.22C840.816 621.354 846.449 644.32 855.983 662.954L993.349 526.887C979.049 500.02 955.649 482.687 928.783 482.687Z" fill="#DA8869"/>
<path opacity="0.23" d="M993.349 526.453L855.982 662.52C870.282 689.82 893.682 707.586 920.982 707.586C966.482 707.586 1005.48 657.753 1008.08 595.786C1008.95 570.22 1003.32 545.953 993.349 526.453Z" fill="#DA8869"/>
<path d="M783.182 596.22C781.882 658.187 732.049 708.02 671.816 708.02C611.582 708.02 563.482 658.187 563.482 596.22C563.916 533.82 613.749 482.687 674.849 482.687C735.949 482.687 784.916 533.82 783.182 596.22Z" stroke="#4B4B4B" stroke-width="13" stroke-miterlimit="10" stroke-linecap="round" stroke-linejoin="round"/>
<path d="M1008.08 596.22C1005.48 658.187 966.483 708.02 920.983 708.02C875.483 708.02 839.949 658.187 841.683 596.22C843.416 533.82 882.416 482.687 928.783 482.687C975.149 482.687 1010.68 533.82 1008.08 596.22Z" stroke="#4B4B4B" stroke-width="13" stroke-miterlimit="10" stroke-linecap="round" stroke-linejoin="round"/>
<path d="M564.783 584.087H503.25" stroke="#4B4B4B" stroke-width="13" stroke-miterlimit="10" stroke-linecap="round" stroke-linejoin="round"/>
<path d="M783.616 584.087C783.616 584.087 835.182 564.153 841.682 584.087" stroke="#4B4B4B" stroke-width="13" stroke-miterlimit="10" stroke-linecap="round" stroke-linejoin="round"/>
</g>
</svg>
