<svg width="137" height="114" viewBox="0 0 137 114" fill="none" xmlns="http://www.w3.org/2000/svg">
<path d="M48.8377 68.1775C35.3423 67.3507 23.8939 69.1333 11.5405 71.6897C7.01572 72.6228 3.73345 73.2069 3.8771 79.943C4.00638 85.8827 6.35496 99.4232 7.33174 102.511C8.45934 106.068 10.2046 107.995 15.7996 107.449C22.3785 106.804 40.9373 102.996 41.0881 102.958C41.1392 102.949 41.1881 102.929 41.2317 102.9C41.2753 102.87 41.3127 102.831 41.3417 102.786C41.3706 102.74 41.3904 102.689 41.3999 102.635C41.4094 102.581 41.4084 102.526 41.3969 102.473C41.3761 102.366 41.3163 102.271 41.2303 102.21C41.1443 102.149 41.0391 102.126 40.9373 102.147C40.7505 102.184 22.2635 105.985 15.7277 106.622C14.1888 106.855 12.6198 106.718 11.1383 106.22C12.3808 103.861 18.4713 92.4974 22.4431 88.1281C25.316 89.6452 29.7258 91.6706 32.9722 91.4051C38.402 90.9575 46.0366 74.2461 46.3598 73.5331C46.4044 73.4355 46.4105 73.3232 46.3769 73.2208C46.3432 73.1185 46.2725 73.0343 46.1803 72.9869C46.1342 72.9624 46.0839 72.9479 46.0324 72.9442C45.9809 72.9405 45.9292 72.9477 45.8804 72.9653C45.8316 72.983 45.7866 73.0108 45.748 73.047C45.7095 73.0833 45.6782 73.1273 45.656 73.1765C45.577 73.351 37.892 90.1686 32.9076 90.5782C26.185 91.132 12.0792 80.9444 5.46436 75.4068C6.54888 73.5179 8.67481 73.0779 11.6842 72.4938C25.0359 69.8843 34.2435 68.1017 48.7946 68.9892C48.8456 68.9923 48.8966 68.9847 48.9447 68.9669C48.9929 68.9491 49.0373 68.9215 49.0753 68.8855C49.1134 68.8496 49.1443 68.8061 49.1664 68.7575C49.1885 68.7089 49.2012 68.6562 49.204 68.6023C49.2069 68.5489 49.1997 68.4954 49.1827 68.445C49.1658 68.3945 49.1395 68.3482 49.1054 68.3086C49.0713 68.269 49.03 68.2371 48.9841 68.2146C48.9381 68.1921 48.8883 68.1795 48.8377 68.1775ZM21.7177 87.726C17.5951 92.3837 11.6123 103.595 10.4201 105.864C8.94055 104.976 8.50244 103.588 7.9925 101.98C7.31019 99.8404 4.79642 86.3606 4.65996 79.9203C4.58304 78.6515 4.73913 77.3791 5.11962 76.1729C6.5776 77.3866 14.2267 83.6221 21.7177 87.726Z" fill="#AD827B"/>
<path d="M4.68173 72.7821C18.1089 68.5743 32.0787 66.6212 46.08 66.9941C46.6375 66.2868 47.2296 65.6108 47.854 64.9687C47.854 64.9687 21.0284 46.3457 17.4086 44.6617C14.3202 43.2356 12.5247 45.3748 11.591 46.9374C10.8728 48.0829 1.25582 62.1089 0.501684 65.2949C-0.252448 68.4809 1.25581 70.3926 4.68173 72.7821Z" fill="#AC8C70"/>
<path d="M23.5278 68.1092C21.7897 65.8335 15.1175 47.3091 14.1479 44.5934C14.1295 44.5421 14.1018 44.4951 14.0662 44.455C14.0307 44.415 13.988 44.3829 13.9406 44.3603C13.8932 44.3378 13.8421 44.3253 13.7902 44.3236C13.7382 44.322 13.6865 44.3312 13.6379 44.3507C13.5902 44.37 13.5466 44.3991 13.5096 44.4362C13.4725 44.4734 13.4428 44.518 13.4221 44.5673C13.4014 44.6166 13.3902 44.6698 13.389 44.7238C13.3878 44.7777 13.3968 44.8314 13.4153 44.8817C13.6236 45.4734 17.0495 55.0542 19.8218 61.9344C14.2197 62.5034 1.6293 66.8652 0.429872 67.0928C0.365084 67.0853 0.299562 67.0952 0.239356 67.1215C0.17915 67.1479 0.126203 67.1899 0.0854038 67.2435C0.0446046 67.2972 0.0172693 67.3609 0.00592308 67.4287C-0.00542316 67.4964 -0.000414544 67.5661 0.0204861 67.6313C0.16413 68.0865 0.200041 68.0637 3.73369 66.9638C8.16511 65.5832 16.3169 63.042 20.1738 62.7309C20.9252 64.7797 21.8507 66.7525 22.9389 68.6251C23.0083 68.6885 23.0968 68.7239 23.1886 68.7249C23.2804 68.7259 23.3695 68.6925 23.4402 68.6306C23.5108 68.5687 23.5584 68.4823 23.5745 68.3869C23.5905 68.2914 23.574 68.193 23.5278 68.1092Z" fill="#FFF9F0"/>
<path d="M79.1254 49.6532C78.4862 47.1119 74.5431 33.1011 71.225 27.1766C67.9068 21.2521 61.3638 15.54 56.1351 19.4543C56.0641 19.5011 55.9848 19.532 55.902 19.545C55.8192 19.5581 55.7348 19.553 55.6539 19.5301C54.4904 19.166 49.8364 18.1495 46.6259 21.6997C38.3951 30.8026 42.3166 46.634 38.9625 56.0252C38.9375 56.1033 38.9284 56.1862 38.9359 56.2683C38.9434 56.3504 38.9672 56.4299 39.0059 56.5016C39.0446 56.5732 39.0972 56.6354 39.1603 56.6841C39.2234 56.7327 39.2955 56.7667 39.3719 56.7838C43.1354 57.9368 64.0715 63.7247 78.9243 50.2828C79.0075 50.206 79.07 50.1073 79.1053 49.9966C79.1407 49.886 79.1476 49.7675 79.1254 49.6532Z" fill="#433939"/>
<path d="M108.687 38.0849C108.762 36.984 109.09 35.919 109.642 34.9823C110.605 33.2452 112.228 28.8379 112.041 26.3801C111.89 24.4305 114.842 19.0826 113.686 18.6502C112.723 18.2861 109.987 24.4988 109.987 24.4988L109.096 24.3547C109.096 24.3547 109.922 15.6083 108.622 15.54C107.322 15.4718 106.978 24.2106 106.978 24.2106L105.742 24.4305C105.742 24.4305 104.033 14.5236 102.869 14.4553C101.706 14.387 103.415 25.0753 103.415 25.0753L102.46 25.3636C102.46 25.3636 99.4292 16.7538 97.9928 17.1786C96.0033 17.8082 101.965 30.3474 101.275 30.7646C100.586 31.1819 97.2458 27.5179 96.4199 28.5951C95.1917 30.1957 99.6519 33.2755 102.647 35.6119C103.193 36.0367 103.121 37.4173 103.056 38.2821L108.687 38.0849Z" fill="#FFF9F0"/>
<path d="M66.3913 95.4028L64.6101 103.497C65.327 105.074 65.9671 106.69 66.5278 108.336C66.8581 109.497 68.1725 113.169 68.8548 113.032C69.5371 112.896 69.573 111.879 69.573 111.879C69.573 111.879 70.8084 112.638 71.426 110.863C71.426 110.863 73.0636 111.621 72.7906 108.192C72.7906 108.192 74.4354 107.972 72.6542 102.769C72.9001 102.886 73.1793 102.9 73.4345 102.807C73.6896 102.714 73.9013 102.521 74.026 102.268C74.421 101.509 72.5895 97.7847 69.3001 97.7164C68.4823 96.7527 67.4942 95.9667 66.3913 95.4028Z" fill="#FFF9F0"/>
<path d="M62.1609 61.6462C62.1609 61.6462 69.616 66.3494 71.0525 58.3236L69.4078 54.3487C69.4078 54.3487 75.4983 49.0387 71.3972 39.6779C71.3972 39.6779 73.6524 37.4021 72.4243 34.5499C72.0574 33.7425 71.47 33.0697 70.7378 32.6181C70.0056 32.1665 69.1621 31.9569 68.3161 32.0163C68.3161 32.0163 66.1255 25.5229 57.708 24.4988C57.708 24.4988 56.3433 34.4058 49.707 38.2366L50.8705 42.6439C50.8705 42.6439 47.3799 42.7122 47.0352 45.7465C46.6904 48.7808 50.9351 49.6531 52.7163 48.4925C52.7163 48.4925 55.1798 55.5093 61.1985 56.3741C61.1985 56.2982 62.2974 60.4932 62.1609 61.6462Z" fill="#FFF9F0"/>
<path d="M56.1995 47.0869C56.2045 47.2596 56.2548 47.4284 56.3476 47.5834C56.4403 47.7384 56.5736 47.8764 56.7396 47.9895C56.9057 48.1025 57.1011 48.1882 57.3144 48.2415C57.5277 48.2949 57.7546 48.3148 57.9819 48.3002C58.2091 48.2855 58.432 48.2366 58.6376 48.1562C58.8432 48.0758 59.0272 47.9657 59.179 47.8322C59.3308 47.6987 59.4472 47.5445 59.5213 47.3787C59.5955 47.213 59.626 47.039 59.6111 46.8669C59.6061 46.6942 59.5558 46.5254 59.463 46.3704C59.3702 46.2154 59.2369 46.0774 59.0709 45.9643C58.9049 45.8513 58.7095 45.7656 58.4962 45.7123C58.2829 45.6589 58.0559 45.639 57.8287 45.6536C57.6015 45.6683 57.3786 45.7172 57.173 45.7976C56.9674 45.878 56.7833 45.9881 56.6316 46.1216C56.4798 46.2551 56.3634 46.4093 56.2892 46.5751C56.215 46.7408 56.1845 46.9148 56.1995 47.0869Z" fill="#FCCAC2"/>
<path d="M69.4149 42.4619C69.4885 42.606 69.5978 42.7271 69.7365 42.8182C69.8753 42.9093 70.0406 42.9685 70.2228 42.9924C70.4051 43.0163 70.6005 43.0044 70.7977 42.9573C70.9949 42.9103 71.1899 42.8291 71.3713 42.7185C71.5527 42.6078 71.7167 42.47 71.8538 42.3131C71.991 42.1562 72.0984 41.9834 72.1699 41.8048C72.2413 41.6261 72.2753 41.4453 72.2699 41.2728C72.2645 41.1004 72.2198 40.9399 72.1384 40.8006C72.0631 40.6591 71.9529 40.5405 71.8139 40.4517C71.675 40.3628 71.5102 40.3054 71.329 40.2828C71.1478 40.2603 70.9538 40.2729 70.7582 40.3201C70.5626 40.3673 70.3693 40.4481 70.1894 40.5578C70.0096 40.6675 69.8467 40.8039 69.7102 40.9592C69.5737 41.1145 69.4664 41.2857 69.3943 41.4627C69.3222 41.6397 69.2868 41.8192 69.2903 41.9907C69.2937 42.1622 69.3358 42.3223 69.4142 42.4619" fill="#FCCAC2"/>
<path d="M110.059 37.7283H109.097C109.312 36.4572 109.73 35.2338 110.332 34.1099L110.741 33.1769C111.715 30.8434 112.293 28.3479 112.451 25.8035C112.903 24.0057 115.122 18.7943 113.887 18.1419C113.819 18.0886 113.739 18.0537 113.655 18.0405C113.572 18.0273 113.486 18.036 113.406 18.0661C112.451 18.4226 110.468 22.4051 109.779 24.0664L109.441 23.9981C109.506 23.2395 109.657 21.6086 109.714 20.0232C109.872 15.8283 109.37 15.1759 108.759 15.1076C108.565 15.0942 108.372 15.1445 108.206 15.2517C107.2 16.1014 106.734 21.601 106.497 23.854L105.879 23.9223C105.606 21.8286 104.579 15.1835 103.279 14.167C103.194 14.0886 103.093 14.0312 102.984 13.999C102.875 13.9669 102.761 13.9608 102.649 13.9811C102.538 14.0014 102.432 14.0477 102.34 14.1166C102.248 14.1855 102.171 14.2753 102.115 14.3794C101.139 15.8131 102.396 22.7237 102.834 24.8629L102.625 24.9312C102.424 24.2864 101.907 22.9134 101.261 21.4645C99.5514 17.4895 98.6608 17.0572 98.3161 16.9813C98.0861 16.881 97.8279 16.881 97.5979 16.9813C95.9962 17.8081 98.4382 23.1789 100.88 30.2867C100.626 30.1127 100.386 29.9174 100.162 29.7026C98.7973 28.6178 96.9443 27.1007 95.8526 28.4737C95.7493 28.5876 95.6758 28.7279 95.6393 28.8808C95.6028 29.0337 95.6045 29.1941 95.6443 29.3461C95.9531 31.7432 102.23 35.5967 102.489 36.1353C102.702 36.7097 102.75 37.3379 102.625 37.9407C101.976 37.939 101.33 38.0387 100.708 38.2366C100.571 38.5931 99.2067 61.3579 99.2067 61.3579C94.5526 58.1112 82.6445 53.3929 76.8988 54.8569C74.849 55.3936 72.9189 56.3498 71.2176 57.6713C70.8729 56.8065 70.1906 55.2135 69.7812 54.2804C72.8049 51.8378 74.4712 46.0423 71.7635 39.7537C72.1936 39.3256 72.537 38.8097 72.7728 38.2373C73.0086 37.6648 73.1319 37.0478 73.1353 36.4236C73.0635 31.9404 68.6895 31.8039 68.6177 31.8039C65.673 24.5746 57.672 24.1422 57.6002 24.1422C57.5014 24.1337 57.4034 24.1662 57.327 24.2328C57.2505 24.2993 57.2017 24.3948 57.1908 24.4988C57.1908 24.5746 56.5372 33.9354 49.5274 37.8725C49.4622 37.9214 49.4092 37.9863 49.3729 38.0616C49.3367 38.1369 49.3182 38.2204 49.3191 38.3048C49.6638 39.6096 50.145 41.4833 50.3462 42.3556C49.2598 42.4405 48.2289 42.8957 47.4086 43.6528C47.0759 44.0222 46.8335 44.4718 46.7025 44.9626C46.5716 45.4534 46.5561 45.9705 46.6573 46.4691C46.7585 46.9676 46.9733 47.4326 47.2833 47.8235C47.5932 48.2145 47.9888 48.5196 48.4357 48.7125C49.684 49.2382 51.0715 49.2625 52.3356 48.7808C52.6085 49.4331 55.4096 55.7217 60.8178 56.5182C60.9543 57.2768 61.4355 59.2643 61.6366 60.6373C47.5451 53.4839 27.0327 97.9743 40.6286 105.302C43.3004 106.743 64.1001 104.544 64.7896 104.43C66.4558 108.314 67.1812 113.252 68.826 113.252C69.3 113.176 69.5442 112.676 69.7166 112.236C69.9046 112.301 70.1034 112.325 70.3006 112.306C70.4978 112.286 70.6891 112.224 70.8624 112.123C71.0357 112.022 71.1874 111.884 71.3079 111.718C71.4283 111.552 71.515 111.361 71.5624 111.158C71.7215 111.215 71.8912 111.231 72.0574 111.205C72.2235 111.178 72.3813 111.11 72.5176 111.007C73.2358 110.514 73.2358 109.133 73.1353 108.405C74.4353 107.95 73.9612 105.515 73.5447 104.134H95.9747C95.2565 98.8619 87.5715 74.2992 87.5715 74.2992C87.5715 74.2992 101.096 83.6373 110.016 78.4866C117.694 74.0717 112.795 37.7966 110.059 37.7283ZM68.7972 32.5245C69.5075 32.5245 70.2018 32.747 70.7923 33.1637C71.3829 33.5805 71.8432 34.1728 72.115 34.8659C72.3868 35.559 72.4579 36.3216 72.3193 37.0573C72.1808 37.7931 71.8388 38.4689 71.3365 38.9993C70.8343 39.5298 70.1944 39.891 69.4978 40.0374C68.8012 40.1837 68.0792 40.1086 67.423 39.8215C66.7668 39.5345 66.2059 39.0483 65.8113 38.4246C65.4167 37.8008 65.2061 37.0675 65.2061 36.3174C65.2061 35.3114 65.5845 34.3467 66.2579 33.6354C66.9314 32.9241 67.8448 32.5245 68.7972 32.5245ZM61.615 56.1541C61.5504 56.01 61.4786 55.8659 61.2775 55.8659C55.661 55.1073 52.9964 48.2801 52.9964 48.2042C52.9672 48.1492 52.9273 48.1013 52.8793 48.0637C52.8314 48.0261 52.7764 47.9996 52.7181 47.986C52.6598 47.9724 52.5994 47.972 52.5409 47.9847C52.4824 47.9975 52.4271 48.0232 52.3787 48.0601C51.8329 48.4925 49.9224 48.7049 48.6152 48.0601C46.8412 47.1878 47.5882 44.8058 48.0694 44.3734C49.0246 43.2887 50.8776 43.2204 50.9423 43.2204C51.1649 43.2204 51.3948 42.9473 51.287 42.7122C51.1793 42.477 50.4611 39.5337 50.26 38.5248C52.1005 37.4548 53.6357 35.883 54.7057 33.9734C55.7816 33.6396 56.9389 33.7705 57.9234 34.3375C57.9678 34.3673 58.0175 34.3873 58.0694 34.3962C58.1214 34.4051 58.1745 34.4028 58.2256 34.3893C58.2767 34.3758 58.3246 34.3515 58.3665 34.3178C58.4084 34.2841 58.4433 34.2418 58.4692 34.1934C58.5009 34.1476 58.5226 34.095 58.5329 34.0394C58.5432 33.9837 58.5418 33.9264 58.5288 33.8714C58.5158 33.8164 58.4914 33.7651 58.4576 33.7211C58.4237 33.6771 58.3811 33.6415 58.3328 33.6168C57.421 33.0687 56.3594 32.8653 55.3234 33.0403C56.6018 30.5548 57.5011 27.8719 57.988 25.0905C61.1334 25.4346 64.0533 26.9739 66.2045 29.4219C65.5499 29.5689 64.9393 29.8829 64.426 30.3365C63.9127 30.79 63.5123 31.3693 63.2598 32.0238C63.239 32.0713 63.228 32.1228 63.2274 32.1751C63.2269 32.2274 63.2367 32.2792 63.2564 32.3271C63.276 32.3751 63.305 32.4181 63.3415 32.4534C63.378 32.4888 63.4211 32.5156 63.468 32.5321C63.6691 32.6004 63.9421 32.4562 63.9421 32.3121C63.9421 32.168 64.768 30.1426 66.7503 30.1426C67.0879 30.6508 67.5044 31.2273 67.842 31.8114C63.8774 32.8203 64.4233 37.3035 64.5597 37.7359C64.1412 37.7965 63.7281 37.8929 63.3244 38.0242C62.9868 37.0153 62.5559 35.794 62.1681 34.6258C62.138 34.5218 62.0713 34.434 61.9818 34.3804C61.8923 34.3267 61.7867 34.3114 61.6868 34.3375C61.6371 34.3515 61.5905 34.3759 61.5497 34.4091C61.509 34.4424 61.4749 34.4839 61.4495 34.5312C61.4241 34.5785 61.4079 34.6307 61.4018 34.6847C61.3957 34.7387 61.3998 34.7934 61.4139 34.8457C61.7515 35.9305 62.1321 37.1215 62.5774 38.2442C61.9162 38.5292 61.3119 38.9436 60.7963 39.4655C60.4393 38.6505 59.8703 37.9596 59.1556 37.4734C58.4409 36.9872 57.61 36.7257 56.7599 36.7194C55.8933 36.7194 55.0463 36.9908 54.3258 37.4993C53.6053 38.0077 53.0438 38.7304 52.7122 39.5759C52.3806 40.4215 52.2938 41.3519 52.4629 42.2495C52.6319 43.1471 53.0492 43.9716 53.6619 44.6187C54.2746 45.2659 55.0553 45.7066 55.9051 45.8851C56.755 46.0637 57.6359 45.972 58.4364 45.6218C59.237 45.2716 59.9212 44.6785 60.4026 43.9175C60.8841 43.1566 61.141 42.2619 61.141 41.3467C61.1269 40.9815 61.0812 40.6184 61.0045 40.262C61.4974 39.6837 62.1126 39.2367 62.8001 38.9572C63.0625 39.7653 63.4068 40.541 63.8271 41.2709C64.1001 41.5591 65.6083 41.5591 65.7448 41.5591C65.4898 42.1586 65.1921 42.7368 64.8542 43.2887C64.8237 43.3355 64.8029 43.3886 64.7932 43.4446C64.7835 43.5005 64.7852 43.5579 64.7981 43.6131C64.811 43.6683 64.8348 43.72 64.868 43.7648C64.9012 43.8095 64.943 43.8464 64.9907 43.8728C65.0819 43.927 65.1892 43.9423 65.2907 43.9154C65.3923 43.8886 65.4802 43.8218 65.5365 43.7287C67.2818 40.6944 66.7072 40.8309 65.2636 40.6944C64.9165 40.6906 64.5713 40.6396 64.2365 40.5426C63.937 39.9457 63.6963 39.3179 63.5183 38.669C63.9152 38.5085 64.3359 38.4238 64.7608 38.4186C65.0413 39.005 65.437 39.5215 65.9215 39.9336C66.406 40.3456 66.9681 40.6438 67.5703 40.8082C68.1726 40.9726 68.8011 40.9995 69.4139 40.887C70.0268 40.7745 70.6099 40.5252 71.1243 40.1558C72.1786 42.6585 72.5301 45.4284 72.137 48.136C71.1817 53.8405 67.2171 54.7128 67.0089 54.7128C66.9096 54.7487 66.8233 54.816 66.7616 54.9056C66.6999 54.9952 66.6659 55.1027 66.6641 55.2135C66.6847 55.3134 66.736 55.4034 66.81 55.4692C66.8841 55.5351 66.9768 55.5732 67.0735 55.5776C67.7917 55.3876 68.4826 55.0968 69.1276 54.7128C69.6088 55.8659 70.4276 57.8154 70.6359 58.3236C70.5074 59.0731 70.2188 59.7818 69.7919 60.3957C69.365 61.0096 68.8111 61.5125 68.1724 61.8662C66.0536 62.9661 63.2454 61.7903 62.4913 61.4338C62.4338 59.9849 61.6078 56.2982 61.6078 56.1541H61.615ZM60.4443 41.4529C60.4443 42.2031 60.2337 42.9364 59.8391 43.5601C59.4445 44.1839 58.8837 44.67 58.2275 44.9571C57.5713 45.2442 56.8492 45.3193 56.1526 45.1729C55.456 45.0266 54.8162 44.6653 54.3139 44.1349C53.8117 43.6045 53.4697 42.9286 53.3311 42.1929C53.1926 41.4571 53.2637 40.6945 53.5355 40.0015C53.8073 39.3084 54.2676 38.716 54.8581 38.2993C55.4487 37.8825 56.143 37.6601 56.8532 37.6601C57.801 37.6757 58.7059 38.0803 59.3761 38.7883C60.0464 39.4962 60.4295 40.4519 60.4443 41.4529ZM42.4888 93.1953C42.4335 93.2211 42.3732 93.2327 42.3128 93.2289C42.2525 93.2252 42.1938 93.2064 42.1417 93.174C42.0896 93.1415 42.0456 93.0965 42.0133 93.0425C41.9809 92.9886 41.9612 92.9272 41.9558 92.8636C41.9504 92.8 41.9594 92.736 41.9821 92.6768C42.0048 92.6176 42.0405 92.5649 42.0863 92.5232C42.132 92.4815 42.1866 92.4519 42.2453 92.4368C42.3041 92.4218 42.3654 92.4218 42.4242 92.4367C42.6971 92.4367 44.7512 92.2243 47.6887 91.9361C49.2616 85.2834 52.4146 76.4687 52.4146 76.3929C52.4508 76.2923 52.5234 76.211 52.6163 76.1669C52.7092 76.1228 52.815 76.1195 52.9102 76.1577C53.0054 76.196 53.0824 76.2726 53.1242 76.3707C53.1659 76.4689 53.169 76.5806 53.1328 76.6811C53.1328 76.757 50.0517 85.2834 48.4788 91.8526C54.4975 91.352 63.2598 90.8437 67.1525 91.7085C67.2523 91.7458 67.3389 91.8145 67.4005 91.9054C67.4622 91.9963 67.496 92.105 67.4973 92.2168C67.4973 92.285 67.2243 93.8022 67.0807 94.4545C67.0365 94.5304 66.9702 94.589 66.8917 94.6214C66.8132 94.6539 66.7269 94.6585 66.6457 94.6345C66.5646 94.6105 66.493 94.5592 66.4419 94.4884C66.3908 94.4176 66.3629 94.3312 66.3625 94.2421C66.5157 93.6728 66.6285 93.0921 66.7 92.505C60.3079 91.2079 42.6899 93.0891 42.5175 93.1574L42.4888 93.1953ZM73.006 107.798C72.2315 105.046 70.9009 102.505 69.1061 100.349C69.0327 100.272 68.9336 100.23 68.8306 100.23C68.7276 100.231 68.629 100.275 68.5566 100.352C68.4842 100.43 68.444 100.535 68.4446 100.643C68.4453 100.752 68.4869 100.856 68.5602 100.933C68.5602 100.933 71.6198 104.46 72.3237 108.443C72.69 110.536 71.8425 110.718 71.706 110.612C70.9878 106.569 68.2155 102.23 68.1149 102.018C68.0575 101.926 67.9696 101.86 67.8685 101.833C67.7675 101.807 67.6606 101.821 67.5691 101.873C67.4859 101.937 67.4266 102.03 67.4016 102.135C67.3767 102.241 67.3877 102.352 67.4326 102.45C67.4326 102.518 70.3055 106.926 71.0237 110.794C70.9519 111.803 70.1978 111.735 69.9967 111.659C69.6519 107.972 67.3249 104.142 67.2602 103.997C67.1985 103.909 67.1094 103.846 67.0084 103.82C66.9074 103.793 66.8008 103.805 66.7072 103.853C66.624 103.917 66.5647 104.01 66.5398 104.115C66.5148 104.221 66.5258 104.332 66.5707 104.43C66.5707 104.506 68.8978 108.336 69.1707 111.879C69.1061 113.032 68.2011 112.167 67.1884 108.913C66.69 107.035 66.0013 105.219 65.1343 103.497C65.6802 100.963 66.5707 96.1917 66.5707 96.1917C66.7072 96.1917 69.3143 97.1702 71.7707 101.98C74.0043 106.417 73.0347 107.76 73.0347 107.76L73.006 107.798ZM73.6237 102.23C73.4371 102.444 73.1801 102.574 72.9055 102.594C72.2427 100.907 71.2907 99.3642 70.0972 98.0426C73.3795 99.2336 74.0618 101.76 73.6524 102.192L73.6237 102.23ZM103.459 37.9104C103.593 37.1325 103.471 36.3295 103.114 35.6347C102.453 34.9368 95.7951 30.4157 96.4128 29.2778C97.0305 28.1399 98.5675 29.5661 99.6951 30.3626C100.586 31.1211 101.132 31.5156 101.541 31.2273C101.95 30.9391 101.9 30.4233 100.449 26.5318C99.7741 24.7188 99.0128 22.6175 98.5316 20.888C97.7487 18.2026 97.7128 17.9295 98.0504 17.7854C98.8763 17.353 101.239 22.8299 102.159 25.5911C102.199 25.6871 102.268 25.7668 102.354 25.8186C102.441 25.8705 102.541 25.8918 102.64 25.8794L103.53 25.6594C103.629 25.631 103.713 25.5623 103.765 25.4685C103.816 25.3747 103.83 25.2633 103.803 25.1587C103.803 25.1587 103.308 22.701 102.977 20.1673C102.41 15.76 102.841 14.9635 102.913 14.8573C103.049 14.9256 103.631 15.4338 104.486 19.697C104.952 22.0865 105.204 24.4684 105.204 24.5367C105.213 24.6421 105.261 24.7394 105.338 24.8076C105.414 24.8757 105.513 24.9093 105.613 24.9008L106.913 24.7567C106.959 24.7588 107.005 24.7509 107.047 24.7334C107.09 24.7158 107.129 24.6891 107.161 24.6548C107.194 24.6206 107.219 24.5796 107.236 24.5344C107.252 24.4893 107.26 24.441 107.258 24.3926C107.595 19.8411 108.213 16.5868 108.623 16.0483C109.032 16.8068 108.895 20.8121 108.558 24.3926C108.55 24.4969 108.581 24.6004 108.644 24.6811C108.707 24.7619 108.797 24.8135 108.895 24.825L109.858 24.9691C109.938 24.9796 110.02 24.9651 110.093 24.9273C110.165 24.8896 110.226 24.8303 110.267 24.7567C111.661 21.7224 112.867 19.6211 113.413 19.0446C113.413 20.4632 111.725 24.9388 111.567 25.7656C111.122 32.8355 108.558 34.0265 108.213 37.6904C106.841 37.7283 104.996 37.7966 103.487 37.8725L103.459 37.9104Z" fill="#946E68"/>
<path d="M67.1094 38.2366C67.2086 38.2449 67.3078 38.2211 67.3938 38.1682C67.4798 38.1153 67.5485 38.036 67.5906 37.9407C67.7395 37.1851 68.1239 36.5039 68.6825 36.0061C69.241 35.5083 69.9414 35.2226 70.6718 35.1947C70.7781 35.1875 70.8784 35.1397 70.9537 35.0601C71.0291 34.9805 71.0744 34.8746 71.0812 34.7623C71.0729 34.6505 71.0271 34.5455 70.9521 34.4663C70.877 34.387 70.7776 34.3386 70.6718 34.3299C67.526 34.3299 66.8365 37.6525 66.8365 37.7283C66.8118 37.8338 66.8263 37.9454 66.8771 38.0399C66.9278 38.1344 67.011 38.2048 67.1094 38.2366Z" fill="#AD827B"/>
<path d="M54.0163 41.0509C53.9691 41.0793 53.9277 41.1172 53.8944 41.1625C53.8611 41.2078 53.8366 41.2596 53.8223 41.3149C53.808 41.3702 53.8041 41.4279 53.8109 41.4848C53.8176 41.5417 53.835 41.5966 53.8619 41.6464C53.8887 41.6962 53.9246 41.7399 53.9675 41.7751C54.0104 41.8103 54.0594 41.8361 54.1118 41.8513C54.1641 41.8664 54.2188 41.8705 54.2727 41.8634C54.3265 41.8562 54.3785 41.8379 54.4257 41.8095C54.9284 41.4584 55.4848 41.2018 56.0704 41.0509C56.5954 40.8989 57.1469 40.8788 57.6806 40.9921C58.2144 41.1053 58.7157 41.3489 59.1444 41.7033C59.2162 41.7716 59.2808 41.7716 59.4173 41.7716C59.4711 41.7708 59.5242 41.7575 59.5726 41.7325C59.621 41.7076 59.6636 41.6717 59.6974 41.6275C59.7329 41.5866 59.7595 41.5381 59.7753 41.4852C59.7911 41.4323 59.7957 41.3764 59.7889 41.3215C59.782 41.2665 59.7639 41.2138 59.7357 41.1671C59.7074 41.1203 59.6699 41.0807 59.6256 41.0509C57.1621 38.8814 54.0163 41.0509 54.0163 41.0509Z" fill="#AD827B"/>
<path d="M67.3609 44.8059C65.5007 45.3445 62.0892 46.3989 62.0892 46.3989C61.7445 46.4747 61.8163 46.8313 61.8163 46.9754C62.0753 47.5983 62.4947 48.1319 63.0267 48.5155C63.5587 48.899 64.182 49.1171 64.8256 49.1449C65.2854 49.1362 65.7377 49.0205 66.1502 48.8058C66.5627 48.5912 66.9253 48.2831 67.2121 47.9034C67.4988 47.5237 67.7027 47.0819 67.8091 46.6094C67.9156 46.1369 67.9219 45.6454 67.8278 45.17C67.8199 45.1136 67.8015 45.0595 67.7738 45.0107C67.746 44.9618 67.7094 44.9193 67.666 44.8855C67.6226 44.8516 67.5733 44.8272 67.521 44.8135C67.4686 44.7999 67.4142 44.7973 67.3609 44.8059ZM65.6731 48.136C65.159 48.3186 64.6014 48.3107 64.0921 48.1135C63.5829 47.9163 63.1525 47.5416 62.8721 47.0513C63.7626 46.763 65.7449 46.1865 67.1814 45.7465C67.1946 46.2606 67.0567 46.7664 66.7866 47.1943C66.5165 47.6222 66.1275 47.9512 65.6731 48.136Z" fill="#AD827B"/>
<path d="M50.9352 45.7464C50.4196 45.6035 49.8934 45.5071 49.3623 45.4582C49.2624 45.4498 49.1634 45.4833 49.0868 45.5514C49.0102 45.6196 48.9621 45.7169 48.9529 45.8223C48.9449 45.9266 48.9756 46.0301 49.0386 46.1109C49.1017 46.1916 49.192 46.2432 49.2905 46.2547C49.776 46.3087 50.2565 46.4051 50.7269 46.5429C50.7988 46.5429 51.1435 46.6188 51.2081 46.2547C51.2211 46.1502 51.2014 46.044 51.1522 45.9523C51.1029 45.8607 51.0268 45.7884 50.9352 45.7464Z" fill="#AD827B"/>
<path d="M89.1875 40.3302C89.1639 40.238 89.1094 40.1579 89.0341 40.1048C88.9588 40.0518 88.8678 40.0295 88.7781 40.042L88.0599 40.1861L87.787 38.5931C87.7856 38.5422 87.7726 38.4925 87.7493 38.448C87.7259 38.4035 87.6928 38.3655 87.6528 38.3373C87.6127 38.3091 87.5668 38.2914 87.5189 38.2858C87.471 38.2801 87.4226 38.2866 87.3776 38.3048C87.3294 38.3063 87.2823 38.32 87.2402 38.3446C87.198 38.3693 87.1621 38.4042 87.1354 38.4466C87.1086 38.4889 87.0919 38.5374 87.0866 38.588C87.0812 38.6385 87.0874 38.6897 87.1046 38.7372L87.3776 40.3985C87.0328 40.4744 86.7599 40.5426 86.6593 40.5426C86.5714 40.5691 86.4954 40.6282 86.4453 40.7089C86.3952 40.7897 86.3743 40.8869 86.3864 40.9826C86.4147 41.0571 86.4606 41.1227 86.5197 41.1731C86.5788 41.2236 86.6491 41.2572 86.724 41.2709C86.724 41.2709 87.1334 41.195 87.4422 41.1267L87.6433 42.2115C87.6509 42.2595 87.6678 42.3054 87.6928 42.3463C87.7179 42.3871 87.7506 42.4221 87.789 42.4492C87.8273 42.4762 87.8705 42.4946 87.9159 42.5033C87.9612 42.512 88.0078 42.5108 88.0527 42.4998C88.261 42.4239 88.3974 42.2798 88.3256 42.0598L88.1245 40.9068C88.347 40.8355 88.5755 40.7872 88.8068 40.7626C88.8624 40.7785 88.9209 40.778 88.9762 40.7612C89.0315 40.7445 89.0814 40.7122 89.1206 40.6677C89.1598 40.6232 89.1867 40.5682 89.1985 40.5088C89.2103 40.4493 89.2065 40.3876 89.1875 40.3302Z" fill="#AC8C70"/>
<path d="M113.686 5.70882H112.968V4.55579C112.975 4.50409 112.971 4.45137 112.958 4.40122C112.944 4.35107 112.92 4.30467 112.887 4.26515C112.855 4.22564 112.815 4.19394 112.77 4.17222C112.725 4.1505 112.676 4.13925 112.627 4.13925C112.577 4.13925 112.528 4.1505 112.483 4.17222C112.438 4.19394 112.398 4.22564 112.366 4.26515C112.334 4.30467 112.31 4.35107 112.296 4.40122C112.282 4.45137 112.278 4.50409 112.285 4.55579V5.70882H111.804C111.755 5.7013 111.705 5.70499 111.658 5.71965C111.61 5.73431 111.567 5.75958 111.529 5.79376C111.492 5.82795 111.462 5.87023 111.441 5.91775C111.421 5.96526 111.41 6.0169 111.41 6.06914C111.41 6.12139 111.421 6.17302 111.441 6.22054C111.462 6.26806 111.492 6.31034 111.529 6.34452C111.567 6.3787 111.61 6.40398 111.658 6.41864C111.705 6.43329 111.755 6.43699 111.804 6.42947H112.285V7.59009C112.278 7.64179 112.282 7.6945 112.296 7.74465C112.31 7.7948 112.334 7.84121 112.366 7.88072C112.398 7.92024 112.438 7.95193 112.483 7.97365C112.528 7.99538 112.577 8.00662 112.627 8.00662C112.676 8.00662 112.725 7.99538 112.77 7.97365C112.815 7.95193 112.855 7.92024 112.887 7.88072C112.92 7.84121 112.944 7.7948 112.958 7.74465C112.971 7.6945 112.975 7.64179 112.968 7.59009V6.42947H113.686C113.768 6.41687 113.843 6.37353 113.897 6.30736C113.951 6.2412 113.981 6.15663 113.981 6.06914C113.981 5.98166 113.951 5.89709 113.897 5.83093C113.843 5.76476 113.768 5.72142 113.686 5.70882Z" fill="#AC8C70"/>
<path d="M123.26 11.6334C123.224 11.6381 123.187 11.6344 123.152 11.6226C123.117 11.6108 123.085 11.5912 123.059 11.5651C123.013 11.5363 122.975 11.4971 122.946 11.4503C122.917 11.4036 122.898 11.3505 122.891 11.2951C122.884 11.2397 122.889 11.1834 122.906 11.1303C122.922 11.0772 122.95 11.0288 122.987 10.9886C124.308 9.00571 125.412 6.8705 126.276 4.62414C126.313 4.52999 126.383 4.45488 126.472 4.41512C126.561 4.37536 126.661 4.37415 126.75 4.41174C126.797 4.42739 126.84 4.45338 126.876 4.48797C126.913 4.52256 126.942 4.56495 126.962 4.61232C126.981 4.6597 126.991 4.71097 126.991 4.76271C126.99 4.81445 126.979 4.86548 126.959 4.9124C125.558 9.19835 123.396 11.6334 123.26 11.6334Z" fill="#AC8C70"/>
<path d="M123.26 15.2518C122.851 15.2518 122.786 14.7435 123.059 14.4553C123.123 14.4553 126.65 12.5361 129.695 7.81014C129.758 7.72363 129.851 7.66703 129.953 7.65281C130.056 7.63858 130.159 7.66789 130.241 7.73428C130.323 7.80067 130.377 7.89871 130.39 8.00683C130.403 8.11494 130.376 8.22429 130.313 8.3108C128.531 11.1958 126.11 13.5783 123.26 15.2518Z" fill="#AC8C70"/>
<path d="M88.297 12.9381C86.8233 12.4797 85.4968 11.6034 84.4617 10.4045C84.396 10.3244 84.3599 10.2221 84.3599 10.1162C84.3599 10.0103 84.396 9.90794 84.4617 9.82794C84.5386 9.75799 84.6367 9.71951 84.7382 9.71951C84.8397 9.71951 84.9378 9.75799 85.0148 9.82794C85.955 10.8417 87.0987 11.6194 88.3617 12.1037C88.4144 12.1159 88.4642 12.1395 88.508 12.1729C88.5518 12.2064 88.5887 12.2489 88.6163 12.298C88.6439 12.347 88.6616 12.4016 88.6685 12.4582C88.6754 12.5148 88.6711 12.5723 88.6561 12.6271C88.6536 12.6731 88.642 12.718 88.6222 12.7591C88.6024 12.8001 88.5748 12.8364 88.541 12.8656C88.5073 12.8948 88.4682 12.9164 88.4262 12.9288C88.3842 12.9413 88.3402 12.9445 88.297 12.9381Z" fill="#AC8C70"/>
<path d="M88.0886 14.3112C86.8332 14.2453 85.5917 14.0029 84.397 13.5905C84.3472 13.5765 84.3006 13.5521 84.2598 13.5189C84.2191 13.4856 84.185 13.4441 84.1596 13.3968C84.1342 13.3495 84.118 13.2973 84.1119 13.2433C84.1058 13.1893 84.1099 13.1346 84.124 13.0823C84.1365 13.03 84.1588 12.9809 84.1896 12.9379C84.2204 12.895 84.259 12.859 84.3032 12.8321C84.3474 12.8052 84.3963 12.7879 84.447 12.7814C84.4976 12.7749 84.549 12.7792 84.5981 12.794C85.728 13.1783 86.9024 13.3978 88.0886 13.4464C88.1962 13.4517 88.2982 13.4988 88.3751 13.5786C88.4519 13.6583 88.4982 13.7652 88.5052 13.8788C88.4334 14.0912 88.2969 14.3112 88.0886 14.3112Z" fill="#AC8C70"/>
<path d="M97.9428 8.88732C97.9428 8.88732 95.3644 8.88732 94.6605 6.6116C94.5849 6.40241 94.5389 6.18259 94.524 5.95922C93.8396 5.99766 93.1583 5.83603 92.5552 5.49209C91.952 5.14814 91.4504 4.63521 91.1053 4.00968C90.8201 3.42518 90.6654 2.77948 90.6529 2.12205C90.6405 1.46461 90.7706 0.812896 91.0335 0.21681C91.1843 -0.253507 92.0605 0.110609 91.7158 0.649197C91.508 1.1273 91.4065 1.64924 91.419 2.17513C91.4314 2.70102 91.5575 3.21695 91.7876 3.6835C92.0578 4.16974 92.4491 4.56835 92.9189 4.83587C93.3888 5.10339 93.9192 5.22957 94.4522 5.20065C94.5859 4.49136 94.8681 3.82265 95.2782 3.24352C95.4585 2.97992 95.7142 2.78449 96.0077 2.68603C96.3011 2.58758 96.6168 2.59132 96.908 2.6967C97.1993 2.80209 97.4508 3.00353 97.6255 3.27134C97.8002 3.53915 97.8887 3.85915 97.8781 4.18416C97.6698 5.04893 96.8511 5.92129 95.2064 5.98957C95.2064 7.26397 96.6931 7.92393 97.8781 8.15909C98.1654 8.27288 98.4814 8.88732 97.9428 8.88732ZM96.0323 3.6835C95.717 4.07673 95.5041 4.54994 95.4146 5.05652C96.6428 4.91239 97.1886 4.29794 97.2605 3.90348C97.2748 3.61523 96.7146 2.96285 96.0323 3.6835Z" fill="#433939"/>
<path d="M127.023 47.1953C125.815 47.1996 124.647 46.7353 123.741 45.8906C122.773 45.0486 122.119 43.8713 121.895 42.568C121.895 42.4533 121.938 42.3434 122.015 42.2623C122.092 42.1812 122.196 42.1356 122.305 42.1356C122.413 42.1356 122.517 42.1812 122.594 42.2623C122.671 42.3434 122.714 42.4533 122.714 42.568C122.94 43.6404 123.492 44.6051 124.287 45.3141C124.773 45.7611 125.349 46.0851 125.971 46.2613C126.593 46.4375 127.246 46.4611 127.878 46.3305C128.301 46.2715 128.702 46.0962 129.042 45.8223C128.612 45.5482 128.243 45.1803 127.96 44.7433C127.676 44.3064 127.484 43.8104 127.397 43.2887C127.318 42.1356 128.115 40.7626 129.652 41.7715C130.693 42.4694 130.816 44.6313 130.205 45.5644C130.27 45.5644 132.891 47.2484 136.152 43.8348C136.229 43.7649 136.327 43.7264 136.428 43.7264C136.53 43.7264 136.628 43.7649 136.705 43.8348C136.771 43.9148 136.807 44.0172 136.807 44.1231C136.807 44.229 136.771 44.3313 136.705 44.4114C133.882 47.2864 131.369 46.8691 130.133 46.3609C129.997 46.2926 129.86 46.2926 129.724 46.2168C128.971 46.8884 128.008 47.2376 127.023 47.1953ZM128.158 43.1445C128.246 43.5624 128.421 43.9545 128.669 44.2928C128.917 44.6312 129.233 44.9074 129.595 45.1017C129.649 44.9268 129.716 44.7569 129.796 44.5934C130.313 42.2115 128.05 41.3391 128.158 43.1445Z" fill="#433939"/>
</svg>
